<mxfile host="65bd71144e">
    <diagram id="dvJJ08qGlkp8CQxcjsMG" name="第 1 页">
        <mxGraphModel dx="990" dy="567" grid="1" gridSize="10" guides="1" tooltips="1" connect="1" arrows="1" fold="1" page="1" pageScale="1" pageWidth="827" pageHeight="1169" math="0" shadow="0">
            <root>
                <mxCell id="0"/>
                <mxCell id="1" parent="0"/>
                <mxCell id="6" value="" style="edgeStyle=none;html=1;sketch=1;" edge="1" parent="1" source="3" target="5">
                    <mxGeometry relative="1" as="geometry"/>
                </mxCell>
                <mxCell id="3" value="Virtual Machine&lt;br&gt;LC3 Arch" style="rounded=1;arcSize=10;whiteSpace=wrap;html=1;align=center;sketch=1;fillColor=#dae8fc;strokeColor=#6c8ebf;" vertex="1" parent="1">
                    <mxGeometry x="90" y="190" width="100" height="40" as="geometry"/>
                </mxCell>
                <mxCell id="8" value="" style="edgeStyle=entityRelationEdgeStyle;html=1;sketch=1;" edge="1" parent="1" source="5" target="7">
                    <mxGeometry relative="1" as="geometry"/>
                </mxCell>
                <mxCell id="10" value="" style="edgeStyle=orthogonalEdgeStyle;html=1;entryX=0;entryY=0.5;entryDx=0;entryDy=0;curved=1;sketch=1;" edge="1" parent="1" source="5" target="9">
                    <mxGeometry relative="1" as="geometry"/>
                </mxCell>
                <mxCell id="12" value="" style="edgeStyle=orthogonalEdgeStyle;html=1;curved=1;sketch=1;entryX=0;entryY=0.5;entryDx=0;entryDy=0;" edge="1" parent="1" source="5" target="11">
                    <mxGeometry relative="1" as="geometry">
                        <Array as="points">
                            <mxPoint x="430" y="210"/>
                            <mxPoint x="430" y="490"/>
                        </Array>
                    </mxGeometry>
                </mxCell>
                <mxCell id="5" value="Hardward Abstract Layer" style="rounded=1;arcSize=10;whiteSpace=wrap;html=1;align=center;sketch=1;" vertex="1" parent="1">
                    <mxGeometry x="250" y="190" width="160" height="40" as="geometry"/>
                </mxCell>
                <mxCell id="22" style="edgeStyle=entityRelationEdgeStyle;curved=1;html=1;entryX=0;entryY=0.5;entryDx=0;entryDy=0;endArrow=oval;endFill=1;sketch=1;" edge="1" parent="1" source="7" target="21">
                    <mxGeometry relative="1" as="geometry"/>
                </mxCell>
                <mxCell id="7" value="Registers" style="rounded=1;arcSize=10;whiteSpace=wrap;html=1;align=center;sketch=1;" vertex="1" parent="1">
                    <mxGeometry x="480" y="190" width="130" height="40" as="geometry"/>
                </mxCell>
                <mxCell id="25" style="edgeStyle=entityRelationEdgeStyle;html=1;entryX=0;entryY=0.5;entryDx=0;entryDy=0;endArrow=oval;endFill=1;exitX=1;exitY=0.75;exitDx=0;exitDy=0;startArrow=none;entryPerimeter=0;curved=1;sketch=1;" edge="1" parent="1" source="9" target="159">
                    <mxGeometry relative="1" as="geometry">
                        <mxPoint x="685.1600000000001" y="91.39999999999998" as="targetPoint"/>
                    </mxGeometry>
                </mxCell>
                <mxCell id="9" value="Memory" style="rounded=1;arcSize=10;whiteSpace=wrap;html=1;align=center;sketch=1;" vertex="1" parent="1">
                    <mxGeometry x="480" y="40" width="130" height="40" as="geometry"/>
                </mxCell>
                <mxCell id="27" style="edgeStyle=entityRelationEdgeStyle;curved=1;html=1;endArrow=oval;endFill=1;entryX=0.007;entryY=0.07;entryDx=0;entryDy=0;entryPerimeter=0;sketch=1;" edge="1" parent="1" source="11" target="118">
                    <mxGeometry relative="1" as="geometry">
                        <mxPoint x="681.56" y="501" as="targetPoint"/>
                    </mxGeometry>
                </mxCell>
                <mxCell id="142" style="edgeStyle=entityRelationEdgeStyle;curved=1;html=1;endArrow=oval;endFill=1;sketch=1;entryX=0;entryY=0.5;entryDx=0;entryDy=0;entryPerimeter=0;" edge="1" parent="1" source="11" target="160">
                    <mxGeometry relative="1" as="geometry">
                        <mxPoint x="683" y="610" as="targetPoint"/>
                    </mxGeometry>
                </mxCell>
                <mxCell id="11" value="Instructions" style="rounded=1;arcSize=10;whiteSpace=wrap;html=1;align=center;sketch=1;" vertex="1" parent="1">
                    <mxGeometry x="480" y="470" width="130" height="40" as="geometry"/>
                </mxCell>
                <mxCell id="14" value="" style="edgeStyle=entityRelationEdgeStyle;startArrow=none;endArrow=oval;segment=10;curved=1;exitX=1;exitY=0.5;exitDx=0;exitDy=0;endFill=1;sketch=1;entryX=0;entryY=0.5;entryDx=0;entryDy=0;entryPerimeter=0;" edge="1" target="158" parent="1" source="9">
                    <mxGeometry relative="1" as="geometry">
                        <mxPoint x="660" y="120" as="sourcePoint"/>
                        <mxPoint x="685" y="30" as="targetPoint"/>
                    </mxGeometry>
                </mxCell>
                <UserObject label="引用" link="https://mp.weixin.qq.com/s/Lf99BG9Zmhi3rSyVCZe48Q" id="20">
                    <mxCell style="fontStyle=4;rounded=1;overflow=hidden;spacing=10;sketch=1;" vertex="1" parent="1">
                        <mxGeometry x="90" y="60" width="190" height="40" as="geometry"/>
                    </mxCell>
                </UserObject>
                <mxCell id="145" style="edgeStyle=entityRelationEdgeStyle;curved=1;sketch=1;html=1;endArrow=oval;endFill=1;exitX=1.008;exitY=0.874;exitDx=0;exitDy=0;exitPerimeter=0;entryX=0;entryY=0.5;entryDx=0;entryDy=0;entryPerimeter=0;" edge="1" parent="1" source="21" target="154">
                    <mxGeometry relative="1" as="geometry">
                        <mxPoint x="1080" y="240" as="targetPoint"/>
                    </mxGeometry>
                </mxCell>
                <mxCell id="21" value="&lt;table border=&quot;1&quot; width=&quot;100%&quot; cellpadding=&quot;4&quot; style=&quot;width: 100% ; height: 100% ; border-collapse: collapse&quot;&gt;&lt;tbody&gt;&lt;tr style=&quot;background-color: #a7c942 ; color: #ffffff ; border: 1px solid #98bf21&quot;&gt;&lt;th align=&quot;left&quot;&gt;Register Name&lt;/th&gt;&lt;th align=&quot;left&quot;&gt;Description&lt;/th&gt;&lt;td&gt;Quantity&lt;/td&gt;&lt;/tr&gt;&lt;tr style=&quot;border: 1px solid #98bf21&quot;&gt;&lt;td&gt;R0~R7&lt;/td&gt;&lt;td&gt;general purpose registers&lt;/td&gt;&lt;td style=&quot;text-align: center&quot;&gt;8&lt;/td&gt;&lt;/tr&gt;&lt;tr style=&quot;background-color: #eaf2d3 ; border: 1px solid #98bf21&quot;&gt;&lt;td&gt;PC&lt;/td&gt;&lt;td&gt;program counter&lt;/td&gt;&lt;td style=&quot;text-align: center&quot;&gt;1&lt;/td&gt;&lt;/tr&gt;&lt;tr style=&quot;border: 1px solid #98bf21&quot;&gt;&lt;td&gt;COND&lt;/td&gt;&lt;td&gt;condition flags&lt;/td&gt;&lt;td style=&quot;text-align: center&quot;&gt;1&lt;/td&gt;&lt;/tr&gt;&lt;/tbody&gt;&lt;/table&gt;" style="text;html=1;strokeColor=#c0c0c0;fillColor=#ffffff;overflow=fill;rounded=0;sketch=1;" vertex="1" parent="1">
                    <mxGeometry x="680" y="130" width="310" height="160" as="geometry"/>
                </mxCell>
                <mxCell id="141" value="" style="group;shadow=0;fillColor=none;sketch=1;" vertex="1" connectable="0" parent="1">
                    <mxGeometry x="680" y="440" width="320" height="120" as="geometry"/>
                </mxCell>
                <mxCell id="137" value="" style="group;shadow=0;fillColor=none;sketch=1;" vertex="1" connectable="0" parent="141">
                    <mxGeometry width="320" height="70" as="geometry"/>
                </mxCell>
                <mxCell id="117" value="Operator" style="shape=table;startSize=30;container=1;collapsible=0;childLayout=tableLayout;shadow=0;fillColor=none;sketch=1;" vertex="1" parent="137">
                    <mxGeometry width="80" height="70" as="geometry"/>
                </mxCell>
                <mxCell id="118" value="" style="shape=partialRectangle;collapsible=0;dropTarget=0;pointerEvents=0;fillColor=none;top=0;left=0;bottom=0;right=0;points=[[0,0.5],[1,0.5]];portConstraint=eastwest;shadow=0;sketch=1;" vertex="1" parent="117">
                    <mxGeometry y="30" width="80" height="40" as="geometry"/>
                </mxCell>
                <mxCell id="119" value="" style="shape=partialRectangle;html=1;whiteSpace=wrap;connectable=0;overflow=hidden;fillColor=none;top=0;left=0;bottom=0;right=0;pointerEvents=1;shadow=0;sketch=1;" vertex="1" parent="118">
                    <mxGeometry width="20" height="40" as="geometry">
                        <mxRectangle width="20" height="40" as="alternateBounds"/>
                    </mxGeometry>
                </mxCell>
                <mxCell id="120" value="" style="shape=partialRectangle;html=1;whiteSpace=wrap;connectable=0;overflow=hidden;fillColor=none;top=0;left=0;bottom=0;right=0;pointerEvents=1;shadow=0;sketch=1;" vertex="1" parent="118">
                    <mxGeometry x="20" width="20" height="40" as="geometry">
                        <mxRectangle width="20" height="40" as="alternateBounds"/>
                    </mxGeometry>
                </mxCell>
                <mxCell id="121" value="" style="shape=partialRectangle;html=1;whiteSpace=wrap;connectable=0;overflow=hidden;fillColor=none;top=0;left=0;bottom=0;right=0;pointerEvents=1;shadow=0;sketch=1;" vertex="1" parent="118">
                    <mxGeometry x="40" width="20" height="40" as="geometry">
                        <mxRectangle width="20" height="40" as="alternateBounds"/>
                    </mxGeometry>
                </mxCell>
                <mxCell id="122" value="" style="shape=partialRectangle;html=1;whiteSpace=wrap;connectable=0;overflow=hidden;fillColor=none;top=0;left=0;bottom=0;right=0;pointerEvents=1;shadow=0;sketch=1;" vertex="1" parent="118">
                    <mxGeometry x="60" width="20" height="40" as="geometry">
                        <mxRectangle width="20" height="40" as="alternateBounds"/>
                    </mxGeometry>
                </mxCell>
                <mxCell id="123" value="Operands" style="shape=table;startSize=30;container=1;collapsible=0;childLayout=tableLayout;shadow=0;fillColor=none;sketch=1;" vertex="1" parent="137">
                    <mxGeometry x="80" width="240" height="70" as="geometry"/>
                </mxCell>
                <mxCell id="124" value="" style="shape=partialRectangle;collapsible=0;dropTarget=0;pointerEvents=0;fillColor=none;top=0;left=0;bottom=0;right=0;points=[[0,0.5],[1,0.5]];portConstraint=eastwest;shadow=0;sketch=1;" vertex="1" parent="123">
                    <mxGeometry y="30" width="240" height="40" as="geometry"/>
                </mxCell>
                <mxCell id="125" value="" style="shape=partialRectangle;html=1;whiteSpace=wrap;connectable=0;overflow=hidden;fillColor=none;top=0;left=0;bottom=0;right=0;pointerEvents=1;shadow=0;sketch=1;" vertex="1" parent="124">
                    <mxGeometry width="20" height="40" as="geometry">
                        <mxRectangle width="20" height="40" as="alternateBounds"/>
                    </mxGeometry>
                </mxCell>
                <mxCell id="126" value="" style="shape=partialRectangle;html=1;whiteSpace=wrap;connectable=0;overflow=hidden;fillColor=none;top=0;left=0;bottom=0;right=0;pointerEvents=1;shadow=0;sketch=1;" vertex="1" parent="124">
                    <mxGeometry x="20" width="19" height="40" as="geometry">
                        <mxRectangle width="19" height="40" as="alternateBounds"/>
                    </mxGeometry>
                </mxCell>
                <mxCell id="127" value="" style="shape=partialRectangle;html=1;whiteSpace=wrap;connectable=0;overflow=hidden;fillColor=none;top=0;left=0;bottom=0;right=0;pointerEvents=1;shadow=0;sketch=1;" vertex="1" parent="124">
                    <mxGeometry x="39" width="21" height="40" as="geometry">
                        <mxRectangle width="21" height="40" as="alternateBounds"/>
                    </mxGeometry>
                </mxCell>
                <mxCell id="128" value="" style="shape=partialRectangle;html=1;whiteSpace=wrap;connectable=0;overflow=hidden;fillColor=none;top=0;left=0;bottom=0;right=0;pointerEvents=1;shadow=0;sketch=1;" vertex="1" parent="124">
                    <mxGeometry x="60" width="21" height="40" as="geometry">
                        <mxRectangle width="21" height="40" as="alternateBounds"/>
                    </mxGeometry>
                </mxCell>
                <mxCell id="129" value="" style="shape=partialRectangle;html=1;whiteSpace=wrap;connectable=0;overflow=hidden;fillColor=none;top=0;left=0;bottom=0;right=0;pointerEvents=1;shadow=0;sketch=1;" vertex="1" parent="124">
                    <mxGeometry x="81" width="20" height="40" as="geometry">
                        <mxRectangle width="20" height="40" as="alternateBounds"/>
                    </mxGeometry>
                </mxCell>
                <mxCell id="130" value="" style="shape=partialRectangle;html=1;whiteSpace=wrap;connectable=0;overflow=hidden;fillColor=none;top=0;left=0;bottom=0;right=0;pointerEvents=1;shadow=0;sketch=1;" vertex="1" parent="124">
                    <mxGeometry x="101" width="19" height="40" as="geometry">
                        <mxRectangle width="19" height="40" as="alternateBounds"/>
                    </mxGeometry>
                </mxCell>
                <mxCell id="131" value="" style="shape=partialRectangle;html=1;whiteSpace=wrap;connectable=0;overflow=hidden;fillColor=none;top=0;left=0;bottom=0;right=0;pointerEvents=1;shadow=0;sketch=1;" vertex="1" parent="124">
                    <mxGeometry x="120" width="20" height="40" as="geometry">
                        <mxRectangle width="20" height="40" as="alternateBounds"/>
                    </mxGeometry>
                </mxCell>
                <mxCell id="132" value="" style="shape=partialRectangle;html=1;whiteSpace=wrap;connectable=0;overflow=hidden;fillColor=none;top=0;left=0;bottom=0;right=0;pointerEvents=1;shadow=0;sketch=1;" vertex="1" parent="124">
                    <mxGeometry x="140" width="19" height="40" as="geometry">
                        <mxRectangle width="19" height="40" as="alternateBounds"/>
                    </mxGeometry>
                </mxCell>
                <mxCell id="133" value="" style="shape=partialRectangle;html=1;whiteSpace=wrap;connectable=0;overflow=hidden;fillColor=none;top=0;left=0;bottom=0;right=0;pointerEvents=1;shadow=0;sketch=1;" vertex="1" parent="124">
                    <mxGeometry x="159" width="21" height="40" as="geometry">
                        <mxRectangle width="21" height="40" as="alternateBounds"/>
                    </mxGeometry>
                </mxCell>
                <mxCell id="134" value="" style="shape=partialRectangle;html=1;whiteSpace=wrap;connectable=0;overflow=hidden;fillColor=none;top=0;left=0;bottom=0;right=0;pointerEvents=1;shadow=0;sketch=1;" vertex="1" parent="124">
                    <mxGeometry x="180" width="21" height="40" as="geometry">
                        <mxRectangle width="21" height="40" as="alternateBounds"/>
                    </mxGeometry>
                </mxCell>
                <mxCell id="135" value="" style="shape=partialRectangle;html=1;whiteSpace=wrap;connectable=0;overflow=hidden;fillColor=none;top=0;left=0;bottom=0;right=0;pointerEvents=1;shadow=0;sketch=1;" vertex="1" parent="124">
                    <mxGeometry x="201" width="20" height="40" as="geometry">
                        <mxRectangle width="20" height="40" as="alternateBounds"/>
                    </mxGeometry>
                </mxCell>
                <mxCell id="136" value="" style="shape=partialRectangle;html=1;whiteSpace=wrap;connectable=0;overflow=hidden;fillColor=none;top=0;left=0;bottom=0;right=0;pointerEvents=1;shadow=0;sketch=1;" vertex="1" parent="124">
                    <mxGeometry x="221" width="19" height="40" as="geometry">
                        <mxRectangle width="19" height="40" as="alternateBounds"/>
                    </mxGeometry>
                </mxCell>
                <mxCell id="140" value="" style="group;shadow=0;fillColor=none;sketch=1;" vertex="1" connectable="0" parent="141">
                    <mxGeometry y="74" width="320" height="46" as="geometry"/>
                </mxCell>
                <mxCell id="138" value="" style="shape=curlyBracket;whiteSpace=wrap;html=1;rounded=1;rotation=-90;fillColor=none;strokeColor=#b85450;shadow=0;sketch=1;" vertex="1" parent="140">
                    <mxGeometry x="150" y="-150" width="20" height="320" as="geometry"/>
                </mxCell>
                <mxCell id="139" value="16bit" style="text;html=1;strokeColor=none;fillColor=none;align=center;verticalAlign=middle;whiteSpace=wrap;rounded=0;shadow=0;sketch=1;" vertex="1" parent="140">
                    <mxGeometry x="130" y="16" width="60" height="30" as="geometry"/>
                </mxCell>
                <mxCell id="152" value="" style="edgeStyle=entityRelationEdgeStyle;curved=1;sketch=1;html=1;endArrow=oval;endFill=1;entryX=0;entryY=0.5;entryDx=0;entryDy=0;entryPerimeter=0;" edge="1" parent="1" source="7" target="157">
                    <mxGeometry relative="1" as="geometry">
                        <mxPoint x="680" y="340" as="targetPoint"/>
                        <mxPoint x="610" y="210" as="sourcePoint"/>
                    </mxGeometry>
                </mxCell>
                <mxCell id="154" value="LC3只使用3个条件标记位，用来表示前一次计算结果的符号" style="shape=note;size=20;whiteSpace=wrap;html=1;shadow=0;sketch=1;align=left;fillColor=#f8cecc;strokeColor=#b85450;" vertex="1" parent="1">
                    <mxGeometry x="1080" y="190" width="120" height="90" as="geometry"/>
                </mxCell>
                <mxCell id="157" value="16 bit" style="shape=note;size=20;whiteSpace=wrap;html=1;shadow=0;sketch=1;fillColor=#d5e8d4;strokeColor=#82b366;" vertex="1" parent="1">
                    <mxGeometry x="680" y="310" width="90" height="40" as="geometry"/>
                </mxCell>
                <mxCell id="158" value="65535 locations" style="shape=note;size=20;whiteSpace=wrap;html=1;shadow=0;sketch=1;fillColor=#d5e8d4;strokeColor=#82b366;" vertex="1" parent="1">
                    <mxGeometry x="687" y="10" width="140" height="40" as="geometry"/>
                </mxCell>
                <mxCell id="159" value="uint16_t memory[UINT16_MAX];&amp;nbsp;&amp;nbsp;" style="shape=note;size=20;whiteSpace=wrap;html=1;shadow=0;sketch=1;fillColor=#d5e8d4;strokeColor=#82b366;" vertex="1" parent="1">
                    <mxGeometry x="687" y="70" width="220" height="40" as="geometry"/>
                </mxCell>
                <mxCell id="160" value="16 instructions" style="shape=note;size=20;whiteSpace=wrap;html=1;shadow=0;sketch=1;fillColor=#d5e8d4;strokeColor=#82b366;" vertex="1" parent="1">
                    <mxGeometry x="680" y="585" width="130" height="40" as="geometry"/>
                </mxCell>
            </root>
        </mxGraphModel>
    </diagram>
</mxfile>